<svg width="192" height="192" viewBox="0 0 192 192" xmlns="http://www.w3.org/2000/svg">
  <!-- 背景渐变 -->
  <defs>
    <linearGradient id="bgGradient" x1="0%" y1="0%" x2="100%" y2="100%">
      <stop offset="0%" style="stop-color:#fffbf0;stop-opacity:1" />
      <stop offset="50%" style="stop-color:#fff7ed;stop-opacity:1" />
      <stop offset="100%" style="stop-color:#fff1f2;stop-opacity:1" />
    </linearGradient>
    
    <!-- 卡片阴影 -->
    <filter id="cardShadow" x="-20%" y="-20%" width="140%" height="140%">
      <feDropShadow dx="2" dy="4" stdDeviation="3" flood-color="rgba(0,0,0,0.1)"/>
    </filter>
    
    <!-- 卡片渐变 -->
    <linearGradient id="cardGradient" x1="0%" y1="0%" x2="100%" y2="100%">
      <stop offset="0%" style="stop-color:#fef3c7;stop-opacity:0.9" />
      <stop offset="100%" style="stop-color:#fed7aa;stop-opacity:0.7" />
    </linearGradient>
    
    <linearGradient id="cardGradient2" x1="0%" y1="0%" x2="100%" y2="100%">
      <stop offset="0%" style="stop-color:#fce7f3;stop-opacity:0.8" />
      <stop offset="100%" style="stop-color:#fbcfe8;stop-opacity:0.6" />
    </linearGradient>
    
    <!-- 星光效果 -->
    <filter id="glow" x="-50%" y="-50%" width="200%" height="200%">
      <feGaussianBlur stdDeviation="2" result="coloredBlur"/>
      <feMerge> 
        <feMergeNode in="coloredBlur"/>
        <feMergeNode in="SourceGraphic"/>
      </feMerge>
    </filter>
  </defs>
  
  <!-- 圆角背景 -->
  <rect width="192" height="192" rx="42" ry="42" fill="url(#bgGradient)"/>
  
  <!-- 主卡片 (稍微旋转) -->
  <g transform="translate(96, 90) rotate(-5)">
    <rect x="-40" y="-30" width="80" height="60" rx="8" ry="8" 
          fill="url(#cardGradient)" 
          stroke="rgba(251, 191, 36, 0.3)" 
          stroke-width="1"
          filter="url(#cardShadow)"/>
    
    <!-- 卡片上的温柔线条 -->
    <line x1="-25" y1="-15" x2="25" y2="-15" stroke="rgba(180, 83, 9, 0.4)" stroke-width="1.5" stroke-linecap="round"/>
    <line x1="-25" y1="-5" x2="15" y2="-5" stroke="rgba(180, 83, 9, 0.3)" stroke-width="1.5" stroke-linecap="round"/>
    <line x1="-25" y1="5" x2="20" y2="5" stroke="rgba(180, 83, 9, 0.3)" stroke-width="1.5" stroke-linecap="round"/>
    
    <!-- 小心形点缀 -->
    <circle cx="20" cy="15" r="2" fill="rgba(251, 191, 36, 0.6)"/>
  </g>
  
  <!-- 后面的卡片 (稍微偏移) -->
  <g transform="translate(96, 85) rotate(8)">
    <rect x="-38" y="-28" width="76" height="56" rx="8" ry="8" 
          fill="url(#cardGradient2)" 
          stroke="rgba(251, 113, 133, 0.3)" 
          stroke-width="1"
          opacity="0.8"/>
    
    <!-- 背面卡片的装饰 -->
    <line x1="-23" y1="-12" x2="23" y2="-12" stroke="rgba(190, 18, 60, 0.4)" stroke-width="1.5" stroke-linecap="round"/>
    <line x1="-23" y1="-2" x2="13" y2="-2" stroke="rgba(190, 18, 60, 0.3)" stroke-width="1.5" stroke-linecap="round"/>
    <line x1="-23" y1="8" x2="18" y2="8" stroke="rgba(190, 18, 60, 0.3)" stroke-width="1.5" stroke-linecap="round"/>
  </g>
  
  <!-- 顶部温柔的星光装饰 -->
  <g filter="url(#glow)">
    <circle cx="60" cy="50" r="1.5" fill="rgba(251, 191, 36, 0.8)"/>
    <circle cx="132" cy="45" r="1" fill="rgba(249, 115, 22, 0.6)"/>
    <circle cx="150" cy="65" r="1.2" fill="rgba(251, 113, 133, 0.7)"/>
  </g>
  
  <!-- 底部的小装饰 -->
  <g transform="translate(96, 150)">
    <circle cx="-20" cy="0" r="2" fill="rgba(251, 191, 36, 0.3)"/>
    <circle cx="0" cy="0" r="1.5" fill="rgba(249, 115, 22, 0.4)"/>
    <circle cx="20" cy="0" r="2" fill="rgba(251, 113, 133, 0.3)"/>
  </g>
  
  <!-- 温柔的光晕效果 -->
  <circle cx="96" cy="96" r="70" fill="none" stroke="rgba(251, 191, 36, 0.1)" stroke-width="1" opacity="0.5"/>
</svg>